<svg version="1.2" xmlns="http://www.w3.org/2000/svg" viewBox="0 0 300 300" width="300" height="300"><style>.a{fill:#fff}.b{fill:#d3d5d5}</style><path class="a" d="m0 0h300v300h-300z"/><path fill-rule="evenodd" d="m0 0h300v300h-300zm2 298h296v-296h-296z"/><path class="b" d="m298 2v296h-296z"/><path class="a" d="m50 50h200v200h-200z"/><path fill-rule="evenodd" d="m50 50h200v200h-200zm2 198h196v-196h-196z"/><path fill-rule="evenodd" d="m100 100h100v100h-100zm2 98h96v-96h-96z"/><path  d="m142 133h2.7l4.8-11.1 4.8 11.1h2.7l-6.2-14h-2.5z"/><path  d="m157 168h-2.7l-4.8 11.1-4.8-11.1h-2.7l6.2 14h2.5z"/><path  d="m101 151v-2h98v2z"/></svg>