<svg version="1.2" xmlns="http://www.w3.org/2000/svg" viewBox="0 0 300 300" width="300" height="300"><style>.a{fill:#fff}.b{fill:#d3d5d5}.c{fill:none;stroke:#000;stroke-width:2}</style><path class="a" d="m0 0h300v300h-300z"/><path fill-rule="evenodd" d="m0 0h300v300h-300zm2 298h296v-296h-296z"/><path class="b" d="m298 2v296h-296z"/><path class="a" d="m50 50h200v200h-200z"/><path fill-rule="evenodd" d="m50 50h200v200h-200zm2 198h196v-196h-196z"/><path fill-rule="evenodd" d="m100 100h100v100h-100zm2 98h96v-96h-96z"/><path class="c" d="m159 146v-7h-19v19h7"/><path  d="m159.3 149.1h-0.8q-0.3 0.7-1.1 1.4-0.7 0.7-1.8 1.2v1.2q0.6-0.3 1.3-0.7 0.7-0.4 1.2-0.8v7.8h1.2z"/></svg>