<svg version="1.2" xmlns="http://www.w3.org/2000/svg" viewBox="0 0 300 300" width="300" height="300"><style>.a{fill:#fff}.b{fill:#d3d5d5}.c{fill:none;stroke:#000;stroke-width:2}</style><path class="a" d="m0 0h300v300h-300z"/><path fill-rule="evenodd" d="m0 0h300v300h-300zm2 298h296v-296h-296z"/><path class="b" d="m298 2v296h-296z"/><path class="a" d="m50 50h200v200h-200z"/><path fill-rule="evenodd" d="m50 50h200v200h-200zm2 198h196v-196h-196z"/><path fill-rule="evenodd" d="m100 100h100v100h-100zm2 98h96v-96h-96z"/><path  d="m149 101h2v98h-2z"/><path  d="m118 133h2.7l4.8-11.1 4.8 11.1h2.7l-6.2-14h-2.5z"/><path  d="m133 168h-2.7l-4.8 11.1-4.8-11.1h-2.7l6.2 14h2.5z"/><path  d="m101 151v-2h98v2z"/><path class="c" d="m184 172v-7h-19v19h7"/><path  d="m179.6 184.2q0.3-0.3 0.6-0.6 0.3-0.4 1.4-1.3 1.3-1.1 1.9-1.8 0.6-0.6 0.8-1.2 0.3-0.6 0.3-1.2 0-1.2-0.9-2-0.8-0.8-2.3-0.8-1.4 0-2.2 0.8-0.9 0.7-1 2.1l1.2 0.2q0-1 0.6-1.5 0.5-0.5 1.4-0.5 0.8 0 1.4 0.5 0.5 0.5 0.5 1.2 0 0.7-0.6 1.5-0.6 0.8-2.2 2.1-1 0.9-1.6 1.5-0.6 0.7-0.8 1.4-0.2 0.4-0.2 0.8h6.7v-1.2z"/><path class="c" d="m184 123v-7h-19v19h7"/><path  d="m184.3 126.1h-0.8q-0.3 0.7-1.1 1.4-0.7 0.7-1.8 1.2v1.2q0.6-0.3 1.3-0.7 0.7-0.4 1.2-0.8v7.8h1.2z"/></svg>